<svg width="55" height="45" viewBox="0 0 55 45" fill="none" xmlns="http://www.w3.org/2000/svg">
<path d="M40.874 26.5665L43.4182 20.2988C44.1197 18.5704 45.9599 17.4165 48.0186 17.4165C51.3584 17.4165 53.7171 20.3394 52.6623 23.1708L49.8156 30.7958C49.32 32.1277 49.0734 32.791 48.7456 33.3578C47.4137 35.6555 44.9381 37.2466 42.0762 37.6533C41.3747 37.7498 40.5894 37.7498 39.0211 37.7498H14.1967C10.3842 37.6965 7.01139 35.5233 5.74819 32.3107L5.64906 32.0489L2.33727 23.1708C1.28248 20.3394 3.64114 17.4165 6.98089 17.4165C9.03964 17.4165 10.8798 18.5679 11.5813 20.2988L14.3721 27.1765C14.6262 27.8018 14.7533 28.1169 14.9363 28.3711C15.3933 28.9856 16.0647 29.4056 16.8171 29.5479C17.1476 29.6165 17.5212 29.6165 18.2659 29.6165H36.0067C37.4529 29.6165 38.1748 29.6165 38.7797 29.3674C39.1101 29.2302 39.41 29.0421 39.6667 28.8108C40.1344 28.3889 40.3809 27.7814 40.874 26.5665Z" stroke="#373CB1" stroke-width="3" stroke-linecap="round"/>
<path d="M27.5 0.260255C26.9944 0.260255 26.5096 0.461091 26.1521 0.818583C25.7946 1.17607 25.5938 1.66094 25.5938 2.16651C25.5938 2.67207 25.7946 3.15694 26.1521 3.51443C26.5096 3.87192 26.9944 4.07276 27.5 4.07276V0.260255ZM17.6333 4.32184C18.1241 4.23327 18.5608 3.95583 18.8494 3.54903C19.1381 3.14223 19.2558 2.63849 19.1773 2.1459C19.0988 1.6533 18.8304 1.2111 18.4295 0.914166C18.0287 0.617235 17.5275 0.489235 17.0334 0.55763L17.6333 4.32184ZM14.1563 22.4998V13.7845H10.3438V22.4998H14.1563ZM40.8438 13.7845V22.4998H44.6563V13.7845H40.8438ZM30.55 4.07276C33.478 4.07276 35.4885 4.0753 37.0008 4.27101C38.4673 4.45655 39.1713 4.79459 39.6492 5.24955L42.2773 2.48676C40.9683 1.24134 39.3416 0.72538 37.4862 0.489005C35.674 0.257713 33.3738 0.260255 30.55 0.260255V4.07276ZM44.6563 13.7845C44.6563 11.103 44.6613 8.89176 44.4148 7.14563C44.1606 5.33342 43.6015 3.74742 42.2798 2.48676L39.6492 5.24955C40.1118 5.68925 40.4473 6.32467 40.6404 7.67684C40.8387 9.09509 40.8438 10.9912 40.8438 13.7845H44.6563ZM14.1563 13.7845C14.1563 10.9886 14.1613 9.09509 14.3596 7.67684C14.5528 6.32467 14.8883 5.68925 15.3508 5.24955L12.7228 2.48676C11.4011 3.74742 10.8419 5.33342 10.5878 7.14563C10.3387 8.89176 10.3438 11.103 10.3438 13.7845H14.1563ZM27.5 4.07276H30.55V0.260255H27.5V4.07276ZM17.0334 0.55763C15.3737 0.821964 13.9148 1.34809 12.7228 2.48676L15.3508 5.24955C15.788 4.83271 16.4133 4.51755 17.6333 4.32184L17.0334 0.555088V0.55763Z" fill="#373CB1"/>
<path d="M42.75 42.8333V37.75M12.25 42.8333V39.4453" stroke="#373CB1" stroke-width="4" stroke-linecap="round"/>
</svg>
