<svg width="47" height="51" viewBox="0 0 47 51" fill="none" xmlns="http://www.w3.org/2000/svg">
<path d="M33.2941 0.0834961C41.4614 0.0834961 46.3529 5.04339 46.375 13.3248V37.6755C46.375 45.9569 41.5056 50.9168 33.3162 50.9168H26.0564C25.1254 50.8127 24.4207 50.015 24.4207 49.0653C24.4207 48.1155 25.1254 47.3178 26.0564 47.2137H33.2941C39.5357 47.2137 42.6787 44.0044 42.6787 37.6755V13.3248C42.6787 6.99593 39.5357 3.78659 33.2941 3.78659H13.6838C7.44213 3.78659 4.27703 6.99593 4.27703 13.3248V37.6755C4.27703 44.0044 7.44213 47.2137 13.6838 47.2137C14.6148 47.3178 15.3195 48.1155 15.3195 49.0653C15.3195 50.015 14.6148 50.8127 13.6838 50.9168C5.51651 50.9168 0.625 45.9569 0.625 37.6755V13.3248C0.625 5.02095 5.51651 0.0834961 13.6838 0.0834961H33.2941ZM32.6301 34.4212C33.6324 34.4212 34.445 35.2452 34.445 36.2616C34.445 37.2779 33.6324 38.1019 32.6301 38.1019H14.3035C13.3012 38.1019 12.4886 37.2779 12.4886 36.2616C12.4886 35.2452 13.3012 34.4212 14.3035 34.4212H32.6301ZM32.6301 23.6486C33.3305 23.5703 34.0133 23.9051 34.3877 24.5104C34.7621 25.1156 34.7621 25.8847 34.3877 26.49C34.0133 27.0952 33.3305 27.43 32.6301 27.3517H14.3035C13.3725 27.2476 12.6678 26.4499 12.6678 25.5002C12.6678 24.5504 13.3725 23.7527 14.3035 23.6486H32.6301ZM21.2977 12.8984C22.2287 13.0025 22.9335 13.8002 22.9335 14.75C22.9335 15.6997 22.2287 16.4974 21.2977 16.6015H14.3257C13.3946 16.4974 12.6899 15.6997 12.6899 14.75C12.6899 13.8002 13.3946 13.0025 14.3257 12.8984H21.2977Z" fill="#373CB1"/>
</svg>
