<svg width="49" height="51" viewBox="0 0 49 51" fill="none" xmlns="http://www.w3.org/2000/svg">
<path d="M5.43615 12.8661C6.23801 12.619 7.12394 12.9025 7.62948 13.5976C8.19118 14.3699 8.12473 15.4325 7.47116 16.1288L5.68094 17.4549C4.83269 18.1596 4.33922 19.2032 4.33275 20.306V40.5288C4.35695 43.823 7.02794 46.4842 10.3222 46.4962H20.4889V46.5404C21.5875 46.5404 22.478 47.431 22.478 48.5295C22.478 49.6281 21.5875 50.5187 20.4889 50.5187H10.3222C4.82225 50.5065 0.366647 46.0509 0.354492 40.5509V20.306C0.389657 17.9666 1.48776 15.7704 3.33819 14.3386L5.17261 12.9683L5.43615 12.8661ZM18.4556 2.11648C21.8116 -0.581143 26.5923 -0.581143 29.9483 2.11648L45.2204 14.2944C47.0301 15.7499 48.0925 17.9395 48.1157 20.2618L48.0936 40.5288C48.0936 46.0338 43.6309 50.4965 38.1259 50.4965H33.7056C31.041 50.4965 28.8775 48.343 28.8654 45.6784V36.5284L28.8447 36.298C28.7362 35.7 28.2128 35.2465 27.5835 35.2465H20.953C20.6092 35.2465 20.2798 35.3846 20.0387 35.6298C19.7977 35.875 19.6652 36.2067 19.6712 36.5505V40.0426C19.6712 41.1411 18.7806 42.0317 17.682 42.0317C16.5835 42.0317 15.6929 41.1411 15.6929 40.0426V36.5505C15.6929 35.1496 16.2494 33.806 17.24 32.8154C18.2306 31.8248 19.5742 31.2683 20.9751 31.2683H27.6056C30.5142 31.2805 32.8658 33.6418 32.8657 36.5505V45.6784C32.8657 46.1423 33.2417 46.5183 33.7056 46.5183H38.2364C41.5321 46.5183 44.2038 43.8466 44.2038 40.5509V20.306C44.1876 19.1844 43.6683 18.1295 42.7893 17.4328L27.5172 5.25488C25.5914 3.6694 22.8125 3.6694 20.8867 5.25488L15.9802 8.92372C15.0708 9.57676 13.8043 9.36896 13.1512 8.45959C12.4982 7.55022 12.706 6.28364 13.6154 5.63061L18.4556 2.11648Z" fill="#373CB1"/>
</svg>
