<svg width="33" height="31" viewBox="0 0 33 31" fill="none" xmlns="http://www.w3.org/2000/svg">
<path d="M16.5096 1.75219C19.1831 0.0427478 22.4552 -0.394603 25.471 0.554394C28.0941 1.37013 30.2753 3.24384 31.5075 5.73996C32.9482 8.76531 33.1444 12.2513 32.0523 15.4246C31.0471 18.3458 29.3992 20.994 27.2346 23.1664C25.8154 24.6251 24.2861 25.9682 22.6607 27.1834L22.5747 27.2564C22.0347 27.62 21.3085 27.4772 20.9401 26.9351C20.7528 26.6733 20.6776 26.3453 20.7316 26.026C20.7856 25.7068 20.9643 25.4234 21.2269 25.2406C22.752 24.0915 24.1899 22.8268 25.5284 21.4574C27.456 19.5605 28.928 17.236 29.8299 14.665C30.6973 12.103 30.5218 9.2939 29.3424 6.86472C28.3933 4.95375 26.721 3.51912 24.7111 2.89155C22.1474 2.07487 19.3544 2.56996 17.2121 4.22081C16.7863 4.54221 16.2042 4.54221 15.7783 4.22081C13.6371 2.56766 10.8429 2.07237 8.27937 2.89155C6.25594 3.50526 4.56703 4.93556 3.60508 6.85012C2.45229 9.27749 2.28738 12.0705 3.14625 14.6212C4.05196 17.1861 5.52359 19.5049 7.44775 21.3989C10.2909 24.1762 13.426 26.6256 16.7963 28.7026C17.225 29.0055 17.4135 29.5551 17.2633 30.064C17.1131 30.573 16.6583 30.9256 16.1368 30.9375C15.9017 30.9389 15.6717 30.8676 15.4772 30.733C11.9664 28.5698 8.70125 26.0175 5.74149 23.1226C3.56489 20.9573 1.91088 18.3073 0.909471 15.3807C-0.144857 12.2119 0.07157 8.74711 1.51168 5.73996C2.74388 3.24384 4.92504 1.37013 7.54811 0.554394C10.564 -0.394603 13.8361 0.0427478 16.5096 1.75219ZM22.8184 6.55797C24.9564 7.24553 26.4782 9.17624 26.6754 11.4514L26.6846 11.6421C26.677 11.8953 26.5906 12.1414 26.4353 12.3434C26.2413 12.596 25.9559 12.7588 25.6431 12.7953C24.9864 12.8817 24.3844 12.4119 24.2953 11.7435C24.2354 10.3936 23.3529 9.2261 22.0872 8.82209C21.6166 8.52277 21.4076 7.93467 21.581 7.39778C21.7544 6.8609 22.2653 6.51414 22.8184 6.55797Z" fill="white"/>
</svg>
