<svg width="24" height="25" viewBox="0 0 24 25" fill="none" xmlns="http://www.w3.org/2000/svg">
<path d="M9.5365 0.927734V7.49002L3.85369 4.20839L0.960693 9.22099L6.64351 12.4997L0.960693 15.7785L3.85369 20.7911L9.5365 17.5094V24.0717H15.3225V17.5094L21.0053 20.7911L23.8983 15.7785L18.2155 12.4997L23.8983 9.22099L21.0053 4.20839L15.3225 7.49002V0.927734H9.5365ZM11.4652 2.8564H13.3938V10.8314L20.2985 6.84391L21.2628 8.51221L14.3582 12.4997L21.2628 16.4872L20.2985 18.1555L13.3938 14.168V22.143H11.4652V14.168L4.56055 18.1555L3.59621 16.4872L10.5008 12.4997L3.59621 8.51221L4.56055 6.84391L11.4652 10.8314V2.8564Z" fill="#5A5A5A"/>
</svg>
