<svg width="22" height="22" viewBox="0 0 22 22" fill="none" xmlns="http://www.w3.org/2000/svg">
<path d="M15.0658 0.166504C19.2226 0.166504 21.8334 2.75784 21.8334 6.94059V9.72367C21.8334 10.1754 21.4662 10.5427 21.0144 10.5427H21.0047V10.5232C20.5475 10.5232 20.177 10.1538 20.1759 9.69659V6.94059C20.1759 3.63317 18.3667 1.824 15.0691 1.824H6.94408C3.64425 1.824 1.82425 3.644 1.82425 6.94059V15.0656C1.82425 18.3524 3.64425 20.1724 6.94083 20.1724H15.0658C18.3624 20.1724 20.1727 18.3524 20.1727 15.0656C20.1727 14.6084 20.5432 14.2368 21.0014 14.2368C21.4597 14.2368 21.8302 14.6084 21.8302 15.0656C21.8334 19.2418 19.2421 21.8332 15.0691 21.8332H6.94083C2.75808 21.8332 0.166748 19.2418 0.166748 15.0688V6.94384C0.166748 2.75784 2.75808 0.166504 6.94083 0.166504H15.0658ZM14.2821 7.85438C14.5996 7.53696 15.1141 7.53696 15.4316 7.85438C15.749 8.17179 15.749 8.68638 15.4316 9.0038L10.289 14.1464C10.1362 14.298 9.92931 14.3836 9.71481 14.3836C9.49815 14.3836 9.29231 14.298 9.13956 14.1464L6.56881 11.5745C6.2514 11.2571 6.2514 10.7425 6.56881 10.4251C6.88623 10.1077 7.40081 10.1077 7.71823 10.4251L9.71481 12.4228L14.2821 7.85438Z" fill="#1B1C1E"/>
</svg>
