<svg width="55" height="55" viewBox="0 0 55 55" fill="none" xmlns="http://www.w3.org/2000/svg">
<path d="M2.08319 32.5833C2.08319 22.9987 2.08319 18.2051 5.06202 15.2288C8.03832 12.25 12.8319 12.25 22.4165 12.25H32.5832C42.1678 12.25 46.9614 12.25 49.9377 15.2288C51.5999 16.8885 52.3345 19.1125 52.6573 22.4167M52.9165 32.5833C52.9165 42.168 52.9165 46.9615 49.9377 49.9378C46.9614 52.9167 42.1678 52.9167 32.5832 52.9167H22.4165C12.8319 52.9167 8.03832 52.9167 5.06202 49.9378C3.39977 48.2781 2.66523 46.0542 2.34244 42.75" stroke="#373CB1" stroke-width="3.8125" stroke-linecap="round"/>
<path d="M37.6665 12.2492C37.6665 7.4556 37.6665 5.06135 36.1771 3.57194C34.6877 2.08252 32.2934 2.08252 27.4999 2.08252C22.7063 2.08252 20.312 2.08252 18.8226 3.57194C17.3332 5.06135 17.3332 7.4556 17.3332 12.2492" stroke="#373CB1" stroke-width="3.8125"/>
<path d="M31.3124 32.5825H23.6874M27.4999 28.77V36.395" stroke="#373CB1" stroke-width="3.8125" stroke-linecap="round"/>
<path d="M27.4999 42.7508C33.1148 42.7508 37.6665 38.199 37.6665 32.5841C37.6665 26.9693 33.1148 22.4175 27.4999 22.4175C21.885 22.4175 17.3332 26.9693 17.3332 32.5841C17.3332 38.199 21.885 42.7508 27.4999 42.7508Z" stroke="#373CB1" stroke-width="3.8125"/>
</svg>
