<svg width="18" height="22" viewBox="0 0 18 22" fill="none" xmlns="http://www.w3.org/2000/svg">
<g clip-path="url(#clip0_283_9523)">
<path d="M17.2332 7.50501C15.8031 8.38872 14.9199 9.90364 14.9199 11.5869C14.9199 13.4805 16.0555 15.2059 17.78 15.9213C17.4435 17.0154 16.9388 18.0253 16.3079 18.9511C15.3825 20.2556 14.4151 21.6022 12.9851 21.6022C11.555 21.6022 11.1344 20.7606 9.45193 20.7606C7.81156 20.7606 7.2227 21.6443 5.87675 21.6443C4.5308 21.6443 3.60546 20.4239 2.55394 18.909C1.16593 16.805 0.366768 14.3643 0.324707 11.7973C0.324707 7.63125 3.01661 5.40095 5.70851 5.40095C7.13858 5.40095 8.31629 6.32674 9.19957 6.32674C10.0408 6.32674 11.3867 5.35887 12.9851 5.35887C14.6675 5.31679 16.2658 6.11633 17.2332 7.50501ZM12.228 3.59146C12.943 2.74983 13.3215 1.6978 13.3636 0.603689C13.3636 0.477445 13.3636 0.30912 13.3215 0.182877C12.1018 0.30912 10.9661 0.898257 10.167 1.82404C9.45193 2.62359 9.03132 3.63354 8.98926 4.72765C8.98926 4.85389 8.98926 4.98014 9.03132 5.10638C9.11545 5.10638 9.24163 5.14846 9.32575 5.14846C10.4614 5.0643 11.5129 4.47516 12.228 3.59146Z" fill="#1B1C1E"/>
</g>
<defs>
<clipPath id="clip0_283_9523">
<rect width="17.4553" height="21.4614" fill="white" transform="translate(0.324707 0.182877)"/>
</clipPath>
</defs>
</svg>
