<svg width="22" height="22" viewBox="0 0 22 22" fill="none" xmlns="http://www.w3.org/2000/svg">
<g clip-path="url(#clip0_283_9518)">
<path d="M15.1802 14.2979H12.9622V21.1785C17.7962 20.2617 21.4515 16.0144 21.4515 10.9137C21.4515 5.14322 16.7736 0.465353 11.0032 0.465353C5.23272 0.465353 0.554848 5.14322 0.554848 10.9137C0.554848 16.0144 4.21016 20.2617 9.04411 21.1785V14.2979H6.6019H6.31952V14.0155V10.9137V10.6313H6.6019H9.04411V8.54957C9.04411 7.14852 9.46256 6.0263 10.2341 5.254C11.0054 4.482 12.097 4.09226 13.3796 4.09226C13.9817 4.09226 14.594 4.14588 15.0533 4.19892C15.2836 4.22551 15.4767 4.25211 15.6126 4.27211C15.6806 4.28212 15.7343 4.29048 15.7712 4.29638L15.8137 4.30328L15.8249 4.30515L15.828 4.30566L15.8288 4.30581L15.8291 4.30585L15.8291 4.30586L15.7817 4.58423L15.8292 4.30587L16.0641 4.34596V4.58423V7.225V7.50738H15.7817H14.4286C13.8234 7.50738 13.4727 7.69262 13.2679 7.92937C13.0566 8.17376 12.9622 8.51751 12.9622 8.90077V10.6313H15.6559H15.9849L15.9351 10.9565L15.4593 14.0583L15.4226 14.2979H15.1802Z" fill="white" stroke="black" stroke-width="0.564774"/>
<path d="M15.1798 14.0154L15.6556 10.9136H12.6795V8.90069C12.6795 8.05208 13.0952 7.22491 14.4282 7.22491H15.7814V4.58415C15.7814 4.58415 14.5533 4.37457 13.3793 4.37457C10.9282 4.37457 9.32616 5.8601 9.32616 8.54949V10.9136H6.60156V14.0154H9.32616V21.514C9.87248 21.5997 10.4324 21.6443 11.0028 21.6443C11.5732 21.6443 12.1332 21.5997 12.6795 21.514V14.0154H15.1798Z" fill="#1B1C1E"/>
</g>
<defs>
<clipPath id="clip0_283_9518">
<rect width="21.4614" height="21.4614" fill="white" transform="translate(0.272461 0.182877)"/>
</clipPath>
</defs>
</svg>
