<svg width="22" height="22" viewBox="0 0 22 22" fill="none" xmlns="http://www.w3.org/2000/svg">
<path d="M20.3932 11.1371C20.3932 10.4396 20.3306 9.76889 20.2144 9.12505H10.9502V12.93H16.244C16.016 14.1595 15.323 15.2013 14.2812 15.8988V18.3669H17.4602C19.3202 16.6544 20.3932 14.1327 20.3932 11.1371Z" fill="#1B1C1E"/>
<path d="M10.9504 20.7501C13.6062 20.7501 15.8329 19.8693 17.4604 18.367L14.2814 15.8989C13.4006 16.4891 12.2739 16.8379 10.9504 16.8379C8.38844 16.8379 6.21994 15.1075 5.44644 12.7826H2.16016V15.3311C3.77871 18.5458 7.10523 20.7501 10.9504 20.7501Z" fill="#1B1C1E"/>
<path d="M5.4463 12.7826C5.24957 12.1924 5.13779 11.562 5.13779 10.9136C5.13779 10.2653 5.24957 9.6349 5.4463 9.04471V6.49616H2.16001C1.47146 7.86688 1.11316 9.37969 1.11377 10.9136C1.11377 12.5009 1.49382 14.0032 2.16001 15.3311L5.4463 12.7826Z" fill="#1B1C1E"/>
<path d="M10.9504 4.98934C12.3946 4.98934 13.6912 5.48564 14.7106 6.46034L17.5319 3.63906C15.8284 2.05181 13.6018 1.0771 10.9504 1.0771C7.10523 1.0771 3.77871 3.28137 2.16016 6.49611L5.44644 9.04466C6.21994 6.71967 8.38844 4.98934 10.9504 4.98934Z" fill="#1B1C1E"/>
</svg>
