<svg width="51" height="51" viewBox="0 0 51 51" fill="none" xmlns="http://www.w3.org/2000/svg">
<path d="M36.5167 0.0830078C45.1304 0.0830078 50.9178 6.12709 50.9178 15.1195V35.8798C50.9178 44.8723 45.1279 50.9163 36.5142 50.9163H22.84C21.7878 50.9163 20.9338 50.0623 20.9338 49.0101C20.9338 47.9578 21.7878 47.1038 22.84 47.1038H36.5142C42.9471 47.1038 47.1053 42.6991 47.1053 35.8798V15.1195C47.1053 8.30021 42.9471 3.89551 36.5167 3.89551H14.483C8.0526 3.89551 3.89697 8.30021 3.89697 15.1195V35.8798C3.89697 42.6991 8.0526 47.1038 14.483 47.1038C15.5353 47.1038 16.3893 47.9578 16.3893 49.0101C16.3893 50.0623 15.5353 50.9163 14.483 50.9163C5.86931 50.9163 0.0844727 44.8723 0.0844727 35.8798V15.1195C0.0844727 6.12709 5.86931 0.0830078 14.483 0.0830078H36.5167ZM17.4695 18.8878C20.4508 18.8878 22.9442 20.8804 23.7677 23.5924H38.2349C39.2871 23.5924 40.1411 24.4464 40.1411 25.4987V30.2058C40.1411 31.2581 39.2871 32.1121 38.2349 32.1121C37.1826 32.1121 36.3286 31.2581 36.3286 30.2058V27.4049H32.9508V30.2058C32.9508 31.2581 32.0968 32.1121 31.0445 32.1121C29.9923 32.1121 29.1383 31.2581 29.1383 30.2058V27.4049H23.7677C22.9442 30.1194 20.4508 32.1121 17.4695 32.1121C13.8247 32.1121 10.8586 29.1459 10.8586 25.4987C10.8586 24.5557 11.0518 23.6458 11.4381 22.7867C11.8702 21.8259 12.9936 21.3964 13.9594 21.831C14.9202 22.2606 15.3472 23.3891 14.9151 24.3498C14.7524 24.7133 14.6711 25.0996 14.6711 25.4987C14.6711 27.044 15.9267 28.2996 17.4695 28.2996C19.0148 28.2996 20.2704 27.044 20.2704 25.4987C20.2704 23.9559 19.0148 22.7003 17.4695 22.7003C16.4172 22.7003 15.5632 21.8463 15.5632 20.794C15.5632 19.7418 16.4172 18.8878 17.4695 18.8878Z" fill="#373CB1"/>
</svg>
