<svg width="61" height="61" viewBox="0 0 61 61" fill="none" xmlns="http://www.w3.org/2000/svg">
<path d="M43.2084 30.5002C45.972 30.4997 48.6602 29.5984 50.8655 27.9328C53.0708 26.2671 54.673 23.928 55.4294 21.2699C56.1858 18.6118 56.055 15.7796 55.057 13.2025C54.059 10.6254 52.248 8.44382 49.8987 6.98845C47.5493 5.53308 44.7896 4.88322 42.0376 5.13736C39.2857 5.39149 36.6917 6.53577 34.6486 8.39677C32.6055 10.2578 31.2247 12.7341 30.7155 15.4504C30.2063 18.1667 30.5965 20.975 31.8268 23.4496C32.0594 23.8989 32.12 24.4177 31.9971 24.9085L31.2397 27.7374C31.1647 28.0175 31.1648 28.3124 31.2398 28.5924C31.3149 28.8725 31.4624 29.1279 31.6674 29.3329C31.8724 29.5379 32.1278 29.6854 32.4078 29.7604C32.6879 29.8355 32.9828 29.8355 33.2629 29.7606L36.0917 29.0031C36.5826 28.8803 37.1013 28.9408 37.5507 29.1734C39.3082 30.0485 41.2451 30.5027 43.2084 30.5002Z" stroke="#373CB1" stroke-width="3"/>
<path d="M38.125 17.7918H48.2917M43.2084 22.8752V12.7085M5.10116 25.2465C4.91562 30.096 6.14324 38.3336 14.4037 46.5965C16.2032 48.4115 18.191 50.0295 20.3334 51.4232M8.99245 17.6317C12.533 14.0912 18.1806 14.5665 20.43 18.5975L22.0795 21.551C23.5664 24.2197 22.9691 27.717 20.6257 30.063C20.6257 30.063 17.779 32.9071 22.9386 38.0642C28.0905 43.2161 30.9372 40.3771 30.9372 40.3771C33.2832 38.0311 36.783 37.4338 39.4492 38.9207L42.4052 40.5728C46.4337 42.8196 46.909 48.4672 43.3685 52.0103C41.2411 54.1351 38.6334 55.7923 35.7537 55.899C33.1202 55.9902 30.489 55.6625 27.9584 54.9281" stroke="#373CB1" stroke-width="3" stroke-linecap="round"/>
</svg>
