<svg width="61" height="61" viewBox="0 0 61 61" fill="none" xmlns="http://www.w3.org/2000/svg">
<path d="M5.08313 35.5833C5.08313 25.9987 5.08313 21.2051 8.06196 18.2288C11.0383 15.25 15.8318 15.25 25.4165 15.25H35.5831C45.1678 15.25 49.9613 15.25 52.9376 18.2288C54.5999 19.8885 55.3344 22.1125 55.6572 25.4167M55.9165 35.5833C55.9165 45.168 55.9165 49.9615 52.9376 52.9378C49.9613 55.9167 45.1678 55.9167 35.5831 55.9167H25.4165C15.8318 55.9167 11.0383 55.9167 8.06196 52.9378C6.39971 51.2781 5.66517 49.0542 5.34238 45.75" stroke="#373CB1" stroke-width="3.8125" stroke-linecap="round"/>
<path d="M40.6665 15.2492C40.6665 10.4556 40.6665 8.06135 39.177 6.57194C37.6876 5.08252 35.2934 5.08252 30.4998 5.08252C25.7062 5.08252 23.312 5.08252 21.8225 6.57194C20.3331 8.06135 20.3331 10.4556 20.3331 15.2492" stroke="#373CB1" stroke-width="3.8125"/>
<path d="M34.3124 35.5825H26.6874M30.4999 31.77V39.395" stroke="#373CB1" stroke-width="3.8125" stroke-linecap="round"/>
<path d="M30.4998 45.7508C36.1147 45.7508 40.6665 41.199 40.6665 35.5841C40.6665 29.9693 36.1147 25.4175 30.4998 25.4175C24.8849 25.4175 20.3331 29.9693 20.3331 35.5841C20.3331 41.199 24.8849 45.7508 30.4998 45.7508Z" stroke="#373CB1" stroke-width="3.8125"/>
</svg>
