<svg width="61" height="61" viewBox="0 0 61 61" fill="none" xmlns="http://www.w3.org/2000/svg">
<path d="M30.5 15.2502V20.3335M30.5 20.3335V25.4168M30.5 20.3335H25.4167M30.5 20.3335H35.5833M20.3333 35.5835H22.875M40.6667 35.5835H30.5M22.875 45.7502H38.125M7.625 35.5835V25.4168C7.625 15.8322 7.625 11.0386 10.6038 8.06233C13.5801 5.0835 18.3737 5.0835 27.9583 5.0835H33.0417C42.6263 5.0835 47.4199 5.0835 50.3962 8.06233C52.0584 9.72204 52.793 11.946 53.1158 15.2502M53.375 25.4168V35.5835C53.375 45.1681 53.375 49.9617 50.3962 52.938C47.4199 55.9168 42.6263 55.9168 33.0417 55.9168H27.9583C18.3737 55.9168 13.5801 55.9168 10.6038 52.938C8.94158 51.2783 8.20704 49.0543 7.88425 45.7502" stroke="#373CB1" stroke-width="4" stroke-linecap="round"/>
</svg>
