<svg width="33" height="32" viewBox="0 0 33 32" fill="none" xmlns="http://www.w3.org/2000/svg">
<path d="M16.5096 2.25219C19.1831 0.542748 22.4552 0.105397 25.471 1.05439C28.0941 1.87013 30.2753 3.74384 31.5075 6.23997C32.9482 9.26531 33.1444 12.7513 32.0523 15.9246C31.0471 18.8458 29.3992 21.494 27.2346 23.6664C25.8154 25.1251 24.2861 26.4682 22.6607 27.6834L22.5747 27.7564C22.0347 28.12 21.3085 27.9772 20.9401 27.4351C20.7528 27.1733 20.6776 26.8453 20.7316 26.526C20.7856 26.2068 20.9643 25.9234 21.2269 25.7406C22.752 24.5915 24.1899 23.3268 25.5284 21.9574C27.456 20.0605 28.928 17.736 29.8299 15.165C30.6973 12.603 30.5218 9.7939 29.3424 7.36472C28.3933 5.45375 26.721 4.01912 24.7111 3.39155C22.1474 2.57487 19.3544 3.06996 17.2121 4.72081C16.7863 5.04221 16.2042 5.04221 15.7783 4.72081C13.6371 3.06766 10.8429 2.57237 8.27937 3.39155C6.25594 4.00526 4.56703 5.43556 3.60508 7.35012C2.45229 9.77749 2.28738 12.5705 3.14625 15.1212C4.05196 17.6861 5.52359 20.0049 7.44775 21.8989C10.2909 24.6762 13.426 27.1256 16.7963 29.2026C17.225 29.5055 17.4135 30.0551 17.2633 30.564C17.1131 31.073 16.6583 31.4256 16.1368 31.4375C15.9017 31.4389 15.6717 31.3676 15.4772 31.233C11.9664 29.0698 8.70125 26.5175 5.74149 23.6226C3.56489 21.4573 1.91088 18.8073 0.909471 15.8807C-0.144857 12.7119 0.07157 9.24711 1.51168 6.23997C2.74388 3.74384 4.92504 1.87013 7.54811 1.05439C10.564 0.105397 13.8361 0.542748 16.5096 2.25219ZM22.8184 7.05797C24.9564 7.74553 26.4782 9.67624 26.6754 11.9514L26.6846 12.1421C26.677 12.3953 26.5906 12.6414 26.4353 12.8434C26.2413 13.096 25.9559 13.2588 25.6431 13.2953C24.9864 13.3817 24.3844 12.9119 24.2953 12.2435C24.2354 10.8936 23.3529 9.7261 22.0872 9.32209C21.6166 9.02277 21.4076 8.43467 21.581 7.89778C21.7544 7.3609 22.2653 7.01414 22.8184 7.05797Z" fill="#373CB1"/>
</svg>
