<svg width="30" height="28" viewBox="0 0 30 28" fill="none" xmlns="http://www.w3.org/2000/svg">
<path d="M15.0078 2.03691C17.3488 0.540077 20.214 0.15712 22.8547 0.988089C25.1516 1.70237 27.0615 3.34305 28.1404 5.52872C29.402 8.1778 29.5737 11.2303 28.6175 14.0088C27.7374 16.5667 26.2944 18.8856 24.399 20.7878C23.1563 22.0651 21.8172 23.2412 20.394 24.3052L20.3186 24.3692C19.8458 24.6875 19.21 24.5625 18.8874 24.0878C18.7233 23.8585 18.6575 23.5714 18.7048 23.2918C18.7521 23.0122 18.9086 22.7641 19.1385 22.6041C20.4739 21.5978 21.733 20.4904 22.905 19.2913C24.5928 17.6303 25.8818 15.595 26.6715 13.3437C27.4311 11.1004 27.2773 8.64065 26.2446 6.51359C25.4136 4.84029 23.9493 3.58409 22.1893 3.03457C19.9445 2.31946 17.4989 2.75297 15.623 4.19851C15.2501 4.47993 14.7405 4.47993 14.3675 4.19851C12.4926 2.75096 10.0459 2.31727 7.80125 3.03457C6.02948 3.57195 4.55062 4.82436 3.70831 6.5008C2.6989 8.62628 2.5545 11.0719 3.30655 13.3054C4.09961 15.5512 5.38821 17.5817 7.07306 19.2402C9.56259 21.672 12.3078 23.8168 15.2589 25.6354C15.6343 25.9007 15.7993 26.3819 15.6678 26.8276C15.5363 27.2732 15.1381 27.582 14.6814 27.5924C14.4756 27.5936 14.2742 27.5312 14.1039 27.4133C11.0297 25.5192 8.17066 23.2843 5.57901 20.7494C3.67312 18.8535 2.22482 16.533 1.34796 13.9705C0.42476 11.1957 0.614269 8.16186 1.87527 5.52872C2.95422 3.34305 4.86411 1.70237 7.16094 0.988089C9.80172 0.15712 12.6669 0.540077 15.0078 2.03691ZM20.5321 6.24499C22.4041 6.84704 23.7367 8.53762 23.9094 10.5298L23.9174 10.6968C23.9107 10.9185 23.8351 11.134 23.6991 11.3109C23.5292 11.5321 23.2793 11.6746 23.0054 11.7065C22.4304 11.7822 21.9033 11.3709 21.8252 10.7856C21.7728 9.6036 21.0001 8.58128 19.8918 8.22752C19.4797 7.96542 19.2967 7.45047 19.4485 6.98036C19.6003 6.51025 20.0477 6.20661 20.5321 6.24499Z" fill="#1B1C1E"/>
</svg>
