<svg width="51" height="51" viewBox="0 0 51 51" fill="none" xmlns="http://www.w3.org/2000/svg">
<path d="M48.9216 32.427C49.9713 32.427 50.8228 33.2784 50.8228 34.3281C50.8228 34.384 50.4644 38.8752 50.3831 40.2578C50.2382 42.6419 49.313 45.0743 47.9075 46.767C45.9504 49.1257 43.457 50.2288 40.0665 50.2364L38.3696 50.238C38.2347 50.2381 38.0938 50.2381 37.9474 50.2382L30.9307 50.2407C30.7061 50.2408 30.4805 50.2408 30.2544 50.2408L24.3056 50.2415C23.2533 50.2415 22.3993 49.3875 22.3993 48.3353C22.3993 47.283 23.2533 46.429 24.3081 46.429L30.3325 46.4283C30.5578 46.4283 30.7823 46.4283 31.0057 46.4282L37.9346 46.4257C38.0793 46.4256 38.2185 46.4256 38.3521 46.4255L40.0588 46.4239C42.3514 46.4188 43.729 45.8317 44.9719 44.3321C45.8538 43.2723 46.4842 41.582 46.5782 40.0291C46.6595 38.6261 47.051 34.1807 47.051 34.1807C47.1272 33.2047 47.9227 32.427 48.9216 32.427ZM2.0538 32.4265C3.05267 32.4265 3.84567 33.2042 3.92446 34.1827C3.92446 34.1827 4.31588 38.6281 4.39975 40.0286C4.4938 41.5815 5.12159 43.2717 6.00355 44.3291C7.24896 45.8337 8.62654 46.4183 10.9166 46.4234L12.0378 46.4256C12.1602 46.4257 12.2893 46.4258 12.4246 46.4258L13.8014 46.426C14.8536 46.426 15.7153 47.28 15.7153 48.3322C15.7153 49.3845 14.8511 50.2385 13.7963 50.2385L12.4151 50.2383C12.2804 50.2383 12.1522 50.2382 12.0308 50.2381L10.9115 50.2359C7.51838 50.2283 5.025 49.1252 3.06792 46.764C1.66492 45.0738 0.737213 42.6414 0.594879 40.2573C0.511004 38.8747 0.152629 34.3835 0.152629 34.3276C0.152629 33.2779 1.00409 32.4265 2.0538 32.4265ZM25.4869 32.1934C26.5392 32.1934 27.3932 33.0474 27.3932 34.0996V37.3885C27.3932 38.4408 26.5392 39.2948 25.4869 39.2948C24.4347 39.2948 23.5807 38.4408 23.5807 37.3885V34.0996C23.5807 33.0474 24.4347 32.1934 25.4869 32.1934ZM28.7687 0.0834961C32.5889 0.0834961 35.7532 2.94795 36.226 6.64354H41.2153C46.5502 6.64354 50.8914 10.9847 50.8914 16.3197V25.1316C50.8914 25.7721 50.5712 26.3669 50.0374 26.7227C44.7965 30.1895 38.5745 32.5025 32.0475 33.4047C31.9585 33.4174 31.8721 33.4225 31.7832 33.4225C30.9241 33.4225 30.154 32.838 29.9379 31.984C29.4245 29.9633 27.5894 28.5476 25.4747 28.5476C23.3372 28.5476 21.5199 29.9328 20.9531 31.9941C20.699 32.9193 19.8145 33.5217 18.8512 33.3793C12.3674 32.477 6.17333 30.1768 0.940038 26.7227C0.403746 26.3694 0.0834961 25.7721 0.0834961 25.1316V16.3197C0.0834961 10.9847 4.43483 6.64354 9.78504 6.64354L14.7489 6.641C15.2217 2.94541 18.386 0.0834961 22.2062 0.0834961H28.7687ZM28.7687 3.896H22.2062C20.1627 3.896 18.4979 5.55825 18.4979 7.60175L18.5004 8.54216C18.5004 9.04795 18.2996 9.53087 17.9438 9.89179C17.5854 10.2502 17.1025 10.451 16.5942 10.451L9.78758 10.456C6.53679 10.456 3.896 13.0867 3.896 16.3197V24.0895C8.06687 26.677 12.8655 28.4841 17.9031 29.3711C19.3341 26.5753 22.2443 24.7351 25.4747 24.7351C28.7306 24.7351 31.6281 26.5804 33.021 29.394C38.089 28.5019 42.903 26.6846 47.0789 24.0895V16.3197C47.0789 13.0867 44.4483 10.456 41.2153 10.456H25.4875C24.4352 10.456 23.5812 9.60204 23.5812 8.54979C23.5812 7.49754 24.4352 6.64354 25.4875 6.64354H32.35C31.9255 5.06262 30.4793 3.896 28.7687 3.896Z" fill="#373CB1"/>
</svg>
