<svg width="51" height="51" viewBox="0 0 51 51" fill="none" xmlns="http://www.w3.org/2000/svg">
<path d="M35.023 0.0834961C44.7918 0.0834961 50.9168 6.16382 50.9168 15.9773V21.8788L50.8991 22.1427C50.7703 23.092 49.9566 23.8236 48.972 23.8236H48.9497L48.6426 23.799C48.239 23.7338 47.8637 23.541 47.5742 23.2448C47.2124 22.8746 47.0152 22.374 47.0272 21.8564V15.9773C47.0272 8.24276 42.7576 3.97312 35.023 3.97312H15.9773C8.22041 3.97312 3.97312 8.24276 3.97312 15.9773V35.0454C3.97312 42.7799 8.24276 47.0272 15.9773 47.0272H35.023C42.7799 47.0272 47.0272 42.7576 47.0272 35.0454C47.0272 33.9713 47.8979 33.1006 48.972 33.1006C50.0461 33.1006 50.9168 33.9713 50.9168 35.0454C50.9168 44.8365 44.8365 50.9168 35.0454 50.9168H15.9773C6.16382 50.9168 0.0834961 44.8365 0.0834961 35.0454V15.9773C0.0834961 6.16382 6.16382 0.0834961 15.9773 0.0834961H35.023ZM14.7031 19.2857C15.219 19.3032 15.7068 19.5251 16.059 19.9024C16.4112 20.2798 16.599 20.7817 16.5809 21.2976V37.549C16.5438 38.6231 15.6431 39.4638 14.569 39.4268C13.4949 39.3898 12.6542 38.489 12.6912 37.4149V21.1411L12.7259 20.837C12.8039 20.4383 13.0068 20.0717 13.3093 19.7928C13.6874 19.4441 14.1894 19.2615 14.7031 19.2857ZM25.5896 11.6629C26.6637 11.6629 27.5344 12.5337 27.5344 13.6078V37.4373C27.5344 38.5114 26.6637 39.3821 25.5896 39.3821C24.5155 39.3821 23.6448 38.5114 23.6448 37.4373V13.6078C23.6448 12.5337 24.5155 11.6629 25.5896 11.6629ZM36.3643 27.8697C37.4384 27.8697 38.3091 28.7404 38.3091 29.8145V37.4149C38.3091 38.489 37.4384 39.3597 36.3643 39.3597C35.2902 39.3597 34.4195 38.489 34.4195 37.4149V29.8145C34.4195 28.7404 35.2902 27.8697 36.3643 27.8697Z" fill="#373CB1"/>
</svg>
