<svg width="51" height="51" viewBox="0 0 51 51" fill="none" xmlns="http://www.w3.org/2000/svg">
<path d="M1.69466 40.5417C1.87112 41.3083 2.24605 42.015 2.78182 42.5909C3.31759 43.1668 3.99538 43.5917 4.7472 43.823L5.2047 45.8335H5.16657V50.9168H45.8332V45.8335H11.9859C12.0192 45.5986 12.0132 45.3598 11.9681 45.1269L11.4699 42.9334L37.7939 36.9453L38.2921 39.1387C38.4248 39.7207 38.7831 40.2261 39.2883 40.544C39.7935 40.8619 40.4042 40.9662 40.9863 40.834L43.1797 40.3333C43.468 40.2679 43.7406 40.1463 43.9819 39.9755C44.2232 39.8046 44.4284 39.5879 44.5859 39.3377C44.7433 39.0875 44.8499 38.8086 44.8995 38.5172C44.9491 38.2258 44.9408 37.9274 44.875 37.6392L44.2371 34.8357C45.3707 33.7784 45.94 32.1771 45.5714 30.5581L44.0719 23.9752C43.8899 23.1821 43.4951 22.4536 42.9299 21.8683C42.3647 21.2829 41.6505 20.8628 40.8643 20.6532L35.6564 12.0675C34.8884 10.806 33.7437 9.81755 32.3838 9.24158C31.024 8.66561 29.5175 8.53121 28.0772 8.85733L8.07932 13.4069C6.63739 13.7335 5.33494 14.506 4.35679 15.6146C3.37864 16.7233 2.77446 18.1118 2.62999 19.5832L1.64636 29.577C1.02942 30.1067 0.568541 30.7946 0.313279 31.5667C0.0580165 32.3387 0.0180284 33.1657 0.197614 33.9588L1.69466 40.5417ZM9.37049 38.7931C8.93841 38.8915 8.49118 38.9039 8.05431 38.8296C7.61745 38.7552 7.19951 38.5955 6.82437 38.3596C6.44922 38.1237 6.12421 37.8162 5.86789 37.4547C5.61158 37.0932 5.42897 36.6848 5.33051 36.2527C5.23204 35.8206 5.21965 35.3734 5.29403 34.9365C5.3684 34.4996 5.5281 34.0817 5.764 33.7066C5.9999 33.3314 6.30738 33.0064 6.66888 32.7501C7.03038 32.4938 7.43883 32.3112 7.87091 32.2127C8.74352 32.0138 9.65938 32.1698 10.417 32.6462C11.1747 33.1226 11.712 33.8805 11.9109 34.7531C12.1097 35.6257 11.9538 36.5416 11.4774 37.2992C11.001 38.0569 10.2431 38.5942 9.37049 38.7931ZM37.8931 32.3067C37.4536 32.4275 36.9942 32.4581 36.5426 32.3966C36.0911 32.335 35.6566 32.1826 35.2655 31.9487C34.8744 31.7147 34.5347 31.4039 34.267 31.0351C33.9992 30.6662 33.8089 30.247 33.7076 29.8027C33.6063 29.3583 33.596 28.898 33.6773 28.4496C33.7587 28.0011 33.93 27.5738 34.181 27.1934C34.432 26.813 34.7574 26.4873 35.1377 26.236C35.5179 25.9848 35.9451 25.8131 36.3935 25.7315C37.2489 25.5756 38.1314 25.7559 38.8572 26.2347C39.5829 26.7135 40.0959 27.4539 40.2893 28.3016C40.4826 29.1493 40.3413 30.0389 39.8949 30.7851C39.4486 31.5312 38.7314 32.0763 37.8931 32.3067ZM9.20528 18.3632L29.2057 13.811C29.6064 13.7205 30.0255 13.7579 30.4039 13.9179C30.7823 14.0779 31.101 14.3526 31.3152 14.7032L35.3438 21.3445L33.9052 21.6724L8.37161 27.4852L6.92795 27.8131L7.68791 20.0813C7.72882 19.672 7.89732 19.2859 8.16961 18.9776C8.44189 18.6693 8.80418 18.4544 9.20528 18.3632ZM41.7793 5.16683L38.2082 0.0834961L36.9374 7.7085L43.2916 17.8752L50.9166 20.4168L45.8332 13.9635L50.9166 11.5922L45.8332 9.22079L50.9166 0.0834961L41.7793 5.16683Z" fill="#373CB1"/>
</svg>
