<svg width="47" height="49" viewBox="0 0 47 49" fill="none" xmlns="http://www.w3.org/2000/svg">
<path d="M36.2083 6.43766C36.2083 9.996 33.4125 12.7918 29.8542 12.7918C26.2958 12.7918 23.5 9.996 23.5 6.43766C23.5 2.87933 26.2958 0.0834961 29.8542 0.0834961C33.4125 0.0834961 36.2083 2.87933 36.2083 6.43766ZM31.125 15.3335H29.0917C23.7542 15.3335 18.6708 12.2835 16.1292 7.45433C15.875 7.20016 15.6208 6.946 15.6208 6.69183L11.0458 8.72516C12.3167 12.2835 16.3833 16.8585 22.2292 19.146L17.6542 31.8543L7.74167 29.0585L0.625 43.0377L5.70833 44.3085L10.2833 35.1585L21.7208 38.2085C24.2625 38.7168 26.8042 37.446 27.8208 35.1585L33.6667 18.8918C34.175 17.1127 32.9042 15.3335 31.125 15.3335ZM41.0375 12.7918L32.3958 36.6835C30.8708 40.7502 27.0583 43.2918 22.9917 43.2918C22.2292 43.2918 21.2125 43.2918 20.45 43.0377L13.0792 41.0043L10.7917 45.5793L15.875 46.8502L19.4333 47.8668C20.7042 48.121 21.975 48.3752 23.2458 48.3752C29.6 48.3752 35.1917 44.5627 37.4792 38.4627L46.375 12.7918H41.0375Z" fill="#373CB1"/>
</svg>
