<svg width="41" height="51" viewBox="0 0 41 51" fill="none" xmlns="http://www.w3.org/2000/svg">
<path d="M20.5 20.4168C26.1171 20.4168 30.6667 15.8672 30.6667 10.2502C30.6667 4.63308 26.1171 0.0834961 20.5 0.0834961C14.8829 0.0834961 10.3333 4.63308 10.3333 10.2502C10.3333 15.8672 14.8829 20.4168 20.5 20.4168ZM20.5 5.16683C23.2958 5.16683 25.5833 7.45433 25.5833 10.2502C25.5833 13.046 23.2958 15.3335 20.5 15.3335C17.7042 15.3335 15.4167 13.046 15.4167 10.2502C15.4167 7.45433 17.7042 5.16683 20.5 5.16683ZM36.7413 26.9235C32.4713 24.7377 26.9304 22.9585 20.5 22.9585C14.0696 22.9585 8.52875 24.7377 4.25875 26.9235C3.01857 27.5623 1.97964 28.5322 1.2573 29.7256C0.534952 30.9191 0.157442 32.2893 0.166669 33.6843V50.9168H5.25V33.6843C5.25 32.7185 5.75834 31.8543 6.57167 31.4477C9.59625 29.8972 14.4763 28.0418 20.5 28.0418C22.4317 28.0418 24.2363 28.2197 25.9138 28.5502L21.9742 36.9377H14.7813C10.9179 36.9377 7.79167 40.0639 7.79167 43.9272C7.79167 47.7906 10.9179 50.9168 14.7813 50.9168H35.75C38.5458 50.9168 40.8333 48.6293 40.8333 45.8335V33.6843C40.8333 30.8377 39.2829 28.2197 36.7413 26.9235ZM17.8058 45.8335H14.7813C13.7392 45.8335 12.875 44.9693 12.875 43.9272C12.875 42.8852 13.7392 42.021 14.7813 42.021H19.585L17.8058 45.8335ZM35.75 45.8335H23.4229L30.8954 29.8972C32.2679 30.4056 33.4625 30.9393 34.4538 31.4477C35.2417 31.8543 35.75 32.7185 35.75 33.6843V45.8335Z" fill="#373CB1"/>
</svg>
