<svg width="41" height="51" viewBox="0 0 41 51" fill="none" xmlns="http://www.w3.org/2000/svg">
<path fill-rule="evenodd" clip-rule="evenodd" d="M40.4264 41.2407C40.4264 49.6181 28.9381 50.5865 20.299 50.5865L19.6807 50.5859C14.1766 50.5726 0.166412 50.225 0.166412 41.1899C0.166412 32.9835 11.1931 31.8868 19.7664 31.8455L20.9172 31.8447C26.4209 31.8581 40.4264 32.2056 40.4264 41.2407ZM20.299 35.6567C9.46891 35.6567 3.97891 37.5172 3.97891 41.1899C3.97891 44.8957 9.46891 46.774 20.299 46.774C31.1265 46.774 36.6139 44.9135 36.6139 41.2407C36.6139 37.535 31.1265 35.6567 20.299 35.6567ZM20.299 0.0825195C27.741 0.0825195 33.7927 6.13677 33.7927 13.5788C33.7927 21.0208 27.741 27.0725 20.299 27.0725H20.2176C12.7909 27.0496 6.77475 20.9928 6.80008 13.5711C6.80008 6.13677 12.8544 0.0825195 20.299 0.0825195ZM20.299 3.71202C14.8572 3.71202 10.4296 8.13706 10.4296 13.5788C10.4119 19.0027 14.8064 23.4252 20.2252 23.4455L20.299 25.2603V23.4455C25.7381 23.4455 30.1632 19.0179 30.1632 13.5788C30.1632 8.13706 25.7381 3.71202 20.299 3.71202Z" fill="#373CB1"/>
</svg>
