<svg width="54" height="54" viewBox="0 0 54 54" fill="none" xmlns="http://www.w3.org/2000/svg">
<path d="M5.0625 35.4375L48.9375 35.4375C49.8695 35.4375 50.625 34.682 50.625 33.75V10.125C50.625 9.19302 49.8695 8.4375 48.9375 8.4375L5.0625 8.4375C4.13052 8.4375 3.375 9.19302 3.375 10.125V33.75C3.375 34.682 4.13052 35.4375 5.0625 35.4375Z" stroke="#373CB1" stroke-width="3" stroke-linejoin="round"/>
<path d="M6.75 40.5H47.25M10.125 45.5625H43.875" stroke="#373CB1" stroke-width="3" stroke-linecap="round" stroke-linejoin="round"/>
<path d="M27 30.375C31.6599 30.375 35.4375 26.5974 35.4375 21.9375C35.4375 17.2776 31.6599 13.5 27 13.5C22.3401 13.5 18.5625 17.2776 18.5625 21.9375C18.5625 26.5974 22.3401 30.375 27 30.375Z" stroke="#373CB1" stroke-width="3" stroke-linecap="round" stroke-linejoin="round"/>
<path d="M50.625 16.875C48.3872 16.875 46.2411 15.9861 44.6588 14.4037C43.0764 12.8214 42.1875 10.6753 42.1875 8.4375M3.375 16.875C4.48303 16.875 5.58021 16.6568 6.60389 16.2327C7.62758 15.8087 8.55772 15.1872 9.34121 14.4037C10.1247 13.6202 10.7462 12.6901 11.1702 11.6664C11.5943 10.6427 11.8125 9.54553 11.8125 8.4375M50.625 27C48.3872 27 46.2411 27.8889 44.6588 29.4713C43.0764 31.0536 42.1875 33.1997 42.1875 35.4375M3.375 27C4.48303 27 5.58021 27.2182 6.60389 27.6423C7.62758 28.0663 8.55772 28.6878 9.34121 29.4713C10.1247 30.2548 10.7462 31.1849 11.1702 32.2086C11.5943 33.2323 11.8125 34.3295 11.8125 35.4375" stroke="#373CB1" stroke-width="3" stroke-linecap="round" stroke-linejoin="round"/>
</svg>
