<svg width="61" height="61" viewBox="0 0 61 61" fill="none" xmlns="http://www.w3.org/2000/svg">
<path d="M35.0343 10.8516H13.8742C13.0725 10.8516 12.3036 11.17 11.7367 11.7369C11.1698 12.3038 10.8513 13.0727 10.8513 13.8744V47.126C10.8513 47.9277 11.1698 48.6966 11.7367 49.2635C12.3036 49.8304 13.0725 50.1489 13.8742 50.1489H47.1258C47.9275 50.1489 48.6964 49.8304 49.2633 49.2635C49.8302 48.6966 50.1487 47.9277 50.1487 47.126V25.9659L35.0343 10.8516Z" stroke="#373CB1" stroke-width="3.02287" stroke-linecap="round" stroke-linejoin="round"/>
<path d="M22.9428 22.943V18.4087M22.9428 22.943C20.4338 22.943 18.4084 22.943 18.4084 25.9659C18.4084 30.5002 27.4771 30.5002 27.4771 35.0345C27.4771 38.0574 25.4517 38.0574 22.9428 38.0574M22.9428 22.943C25.4517 22.943 27.4771 24.0917 27.4771 25.9659M18.4084 35.0345C18.4084 37.3017 20.4338 38.0574 22.9428 38.0574M22.9428 38.0574V42.5917M35.0342 38.0574H44.1029M35.0342 24.4545V10.8516L50.1486 25.9659H36.5457C36.1448 25.9659 35.7604 25.8067 35.4769 25.5232C35.1935 25.2398 35.0342 24.8553 35.0342 24.4545Z" stroke="#373CB1" stroke-width="3.02287" stroke-linecap="round" stroke-linejoin="round"/>
</svg>
