<svg width="61" height="61" viewBox="0 0 61 61" fill="none" xmlns="http://www.w3.org/2000/svg">
<path d="M30.44 40.976C30.024 40.976 29.68 40.832 29.408 40.544C29.136 40.272 29 39.936 29 39.536V37.568L29.648 38.144C28.544 38.112 27.584 37.976 26.768 37.736C25.952 37.496 25.272 37.232 24.728 36.944C24.376 36.768 24.128 36.528 23.984 36.224C23.856 35.92 23.808 35.608 23.84 35.288C23.872 34.952 23.984 34.664 24.176 34.424C24.368 34.168 24.616 34 24.92 33.92C25.24 33.84 25.6 33.904 26 34.112C26.384 34.32 26.92 34.536 27.608 34.76C28.296 34.968 29.136 35.072 30.128 35.072C30.864 35.072 31.456 34.992 31.904 34.832C32.352 34.656 32.672 34.432 32.864 34.16C33.072 33.888 33.176 33.576 33.176 33.224C33.176 32.936 33.104 32.68 32.96 32.456C32.832 32.232 32.6 32.04 32.264 31.88C31.944 31.704 31.512 31.56 30.968 31.448L28.328 30.872C26.856 30.552 25.76 30.008 25.04 29.24C24.32 28.456 23.96 27.448 23.96 26.216C23.96 25.256 24.192 24.4 24.656 23.648C25.136 22.896 25.792 22.288 26.624 21.824C27.472 21.36 28.464 21.08 29.6 20.984L29 21.368V19.544C29 19.144 29.136 18.808 29.408 18.536C29.68 18.248 30.024 18.104 30.44 18.104C30.84 18.104 31.176 18.248 31.448 18.536C31.72 18.808 31.856 19.144 31.856 19.544V21.368L31.256 20.936C31.912 20.968 32.616 21.096 33.368 21.32C34.136 21.528 34.8 21.832 35.36 22.232C35.664 22.424 35.872 22.664 35.984 22.952C36.112 23.24 36.144 23.528 36.08 23.816C36.032 24.104 35.912 24.36 35.72 24.584C35.528 24.792 35.272 24.928 34.952 24.992C34.648 25.04 34.288 24.96 33.872 24.752C33.44 24.544 32.968 24.368 32.456 24.224C31.944 24.08 31.312 24.008 30.56 24.008C29.616 24.008 28.88 24.2 28.352 24.584C27.84 24.968 27.584 25.464 27.584 26.072C27.584 26.52 27.736 26.88 28.04 27.152C28.36 27.424 28.912 27.648 29.696 27.824L32.36 28.4C33.88 28.736 35 29.28 35.72 30.032C36.456 30.784 36.824 31.76 36.824 32.96C36.824 33.904 36.592 34.744 36.128 35.48C35.664 36.2 35.024 36.784 34.208 37.232C33.392 37.68 32.44 37.968 31.352 38.096L31.856 37.544V39.536C31.856 39.936 31.72 40.272 31.448 40.544C31.192 40.832 30.856 40.976 30.44 40.976Z" fill="#373CB1"/>
<path d="M53.375 27.9582C53.375 42.0644 43.615 55.2557 30.5 58.4582C17.385 55.2557 7.625 42.0644 7.625 27.9582V12.7082L30.5 2.5415L53.375 12.7082V27.9582ZM30.5 53.3748C40.0312 50.8332 48.2917 39.4973 48.2917 28.5173V16.0123L30.5 8.08234L12.7083 16.0123V28.5173C12.7083 39.4973 20.9688 50.8332 30.5 53.3748Z" fill="#373CB1"/>
</svg>
